<svg width="70" height="70" xmlns="http://www.w3.org/2000/svg">
 <!-- Generator: Sketch 57.1 (83088) - https://sketch.com -->

 <title>Icon/Big/HighSun</title>
 <desc>Created with Sketch.</desc>
 <g>
  <title>background</title>
  <rect fill="none" id="canvas_background" height="402" width="582" y="-1" x="-1"/>
 </g>
 <g>
  <title>Layer 1</title>
  <g fill-rule="evenodd" fill="none" id="assets">
   <g fill="#FD9872" id="styleguide">
    <g id="Icon/Big/HighSun">
     <g id="Group-12">
      <path fill="#6e6e6e" id="Combined-Shape" d="m35.886076,57.594937l0,12.405063l-1.772152,0l0,-12.405063l1.772152,0zm16.603823,-8.130013l8.771266,8.771266l-1.252912,1.252911l-8.771266,-8.771266l1.252912,-1.252911zm-34.093722,0l1.252912,1.252911l-8.771266,8.771266l-1.252912,-1.252911l8.771266,-8.771266zm16.603823,-33.515557c10.016202,0 18.164557,8.148354 18.164557,18.164557c0,10.016203 -8.148355,18.164557 -18.164557,18.164557c-10.016202,0 -18.164557,-8.148354 -18.164557,-18.164557c0,-10.016203 8.148355,-18.164557 18.164557,-18.164557zm0,1.772152c-9.038861,0 -16.392405,7.353544 -16.392405,16.392405c0,9.038861 7.353544,16.392405 16.392405,16.392405c9.038861,0 16.392405,-7.353544 16.392405,-16.392405c0,-9.038861 -7.353544,-16.392405 -16.392405,-16.392405zm-22.594937,16.392405l0,1.772152l-12.405063,0l0,-1.772152l12.405063,0zm57.594937,0l0,1.772152l-12.405063,0l0,-1.772152l12.405063,0zm-58.235835,-25.374734l8.771265,8.771266l-1.252911,1.252911l-8.771266,-8.771266l1.252912,-1.252911zm47.357746,0l1.252912,1.252911l-8.771266,8.771266l-1.252911,-1.252911l8.771265,-8.771266zm-23.235835,-8.73919l0,12.405063l-1.772152,0l0,-12.405063l1.772152,0z"/>
     </g>
    </g>
   </g>
  </g>
 </g>
</svg>