<svg width="67" height="67" xmlns="http://www.w3.org/2000/svg">
 <!-- Generator: Sketch 57.1 (83088) - https://sketch.com -->

 <title>Icon/Big/LowSun</title>
 <desc>Created with Sketch.</desc>
 <g>
  <title>background</title>
  <rect fill="none" id="canvas_background" height="402" width="582" y="-1" x="-1"/>
 </g>
 <g>
  <title>Layer 1</title>
  <g fill-rule="evenodd" fill="none" id="assets">
   <g fill="#FD9872" id="styleguide">
    <g id="Icon/Big/LowSun">
     <g id="Group-12">
      <path fill="#6e6e6e" id="Combined-Shape" d="m34.3481,48.76582l0,18.23418l-1.6962,0l0,-18.23418l1.6962,0zm12.47269,-4.84037l11.8149,11.8149l-1.19922,1.19922l-11.8149,-11.8149l1.19922,-1.19922zm-26.64158,0.84811l1.19922,1.19921l-10.9668,10.9668l-1.19921,-1.19922l10.96679,-10.96679zm13.32079,-24.84318c7.01465,0 12.72152,5.70687 12.72152,12.72152c0,7.01464 -5.70687,12.72152 -12.72152,12.72152c-7.01465,0 -12.72152,-5.70688 -12.72152,-12.72152c0,-7.01465 5.70687,-12.72152 12.72152,-12.72152zm0,1.6962c-6.07919,0 -11.02532,4.94613 -11.02532,11.02532c0,6.07919 4.94613,11.02532 11.02532,11.02532c6.07919,0 11.02532,-4.94613 11.02532,-11.02532c0,-6.07919 -4.94613,-11.02532 -11.02532,-11.02532zm-16.96203,11.02532l0,1.6962l-16.53797,0l0,-1.6962l16.53797,0zm50.46203,0l0,1.6962l-17.38608,0l0,-1.6962l17.38608,0zm-10.41129,-24.28793l1.19921,1.19922l-11.81489,11.8149l-1.19922,-1.19922l11.8149,-11.8149zm-45.32932,0l11.39085,11.39085l-1.19921,1.19922l-11.39085,-11.39085l1.19921,-1.19922zm23.08871,-8.36397l0,16.53797l-1.6962,0l0,-16.53797l1.6962,0z"/>
     </g>
    </g>
   </g>
  </g>
 </g>
</svg>