<svg width="104" height="70" xmlns="http://www.w3.org/2000/svg">
 <!-- Generator: Sketch 57.1 (83088) - https://sketch.com -->

 <title>Icon/Big/ThreeDrops</title>
 <desc>Created with Sketch.</desc>
 <g>
  <title>background</title>
  <rect fill="none" id="canvas_background" height="402" width="582" y="-1" x="-1"/>
 </g>
 <g>
  <title>Layer 1</title>
  <g fill-rule="evenodd" fill="none" id="assets">
   <g fill="#7BAF9E" id="styleguide">
    <g id="Icon/Big/ThreeDrops">
     <path fill="#6e6e6e" id="Combined-Shape" d="m52.17928,0.25408c1.1856,1.05377 29.03977,25.98209 29.03977,41.36777c0,15.64771 -13.32983,28.37815 -29.71429,28.37815c-0.91223,0 -1.83832,-0.04068 -2.75055,-0.12013c-0.54476,-0.04825 -0.94591,-0.50797 -0.89539,-1.02824c0.04952,-0.52027 0.52891,-0.90337 1.07665,-0.85607c0.85181,0.07473 1.71649,0.11256 2.56929,0.11256c15.29196,0 27.73334,-11.88193 27.73334,-26.48627c0,-13.29327 -23.42576,-35.41498 -27.73433,-39.36995c-1.14499,1.0481 -3.64198,3.37795 -6.66491,6.46076c-0.37539,0.38027 -1.00236,0.40013 -1.40054,0.04351c-0.39916,-0.35662 -0.41996,-0.9554 -0.04556,-1.33661c4.2016,-4.28415 7.40579,-7.1371 7.43749,-7.16548c0.38034,-0.33865 0.96868,-0.33865 1.34903,0zm22.78095,0c1.1856,1.05377 29.03977,25.98209 29.03977,41.36777c0,15.64771 -13.32983,28.37815 -29.71429,28.37815c-0.91222,0 -1.83832,-0.04068 -2.75055,-0.12013c-0.54476,-0.04825 -0.9459,-0.50797 -0.89539,-1.02824c0.04953,-0.52027 0.52594,-0.90337 1.07665,-0.85607c0.85181,0.07473 1.71649,0.11256 2.56929,0.11256c15.29197,0 27.73334,-11.88193 27.73334,-26.48627c0,-13.29327 -23.42575,-35.41498 -27.73433,-39.36995c-1.14499,1.0481 -3.64198,3.37795 -6.66491,6.46076c-0.37638,0.38027 -1.00137,0.40013 -1.40053,0.04351c-0.39917,-0.35662 -0.41997,-0.9554 -0.04557,-1.33661c4.2016,-4.28415 7.40579,-7.1371 7.43749,-7.16548c0.38034,-0.33865 0.96869,-0.33865 1.34903,0zm-44.57143,-0.0001c1.1856,1.05378 29.03977,25.98209 29.03977,41.36778c0,15.64771 -13.32983,28.37815 -29.71428,28.37815c-16.38446,0 -29.71429,-12.73044 -29.71429,-28.37815c0,-15.38569 27.85417,-40.314 29.03977,-41.36778c0.38034,-0.33864 0.96869,-0.33864 1.34903,0zm-0.67451,1.99783c-4.31056,3.9578 -27.73334,26.07762 -27.73334,39.36995c0,14.60528 12.44137,26.48627 27.73334,26.48627c15.29196,0 27.73333,-11.88099 27.73333,-26.48627c0,-13.29233 -23.42278,-35.41215 -27.73333,-39.36995z"/>
    </g>
   </g>
  </g>
 </g>
</svg>