<svg width="78" height="70" xmlns="http://www.w3.org/2000/svg">
 <!-- Generator: Sketch 57.1 (83088) - https://sketch.com -->

 <title>Icon/Big/TwoDrops</title>
 <desc>Created with Sketch.</desc>
 <g>
  <title>background</title>
  <rect fill="none" id="canvas_background" height="402" width="582" y="-1" x="-1"/>
 </g>
 <g>
  <title>Layer 1</title>
  <g fill-rule="evenodd" fill="none" id="assets">
   <g fill="#7BAF9E" id="styleguide">
    <g id="Icon/Big/TwoDrops">
     <path fill="#6e6e6e" id="Combined-Shape" d="m50.1112,0.25408c1.1386,1.05377 27.8888,25.98209 27.8888,41.36777c0,15.64771 -12.80151,28.37815 -28.53659,28.37815c-0.87607,0 -1.76546,-0.04068 -2.64153,-0.12013c-0.52317,-0.04825 -0.90842,-0.50797 -0.8599,-1.02824c0.04756,-0.52027 0.507,-0.90337 1.03397,-0.85607c0.81805,0.07473 1.64846,0.11256 2.46746,0.11256c14.68588,0 26.63415,-11.88193 26.63415,-26.48627c0,-13.29327 -22.49729,-35.41498 -26.6351,-39.36995c-1.09961,1.0481 -3.49763,3.37795 -6.40075,6.46076c-0.36051,0.38027 -0.96264,0.40013 -1.34503,0.04351c-0.38334,-0.35662 -0.40331,-0.9554 -0.04375,-1.33661c4.03507,-4.28415 7.11227,-7.1371 7.1427,-7.16548c0.36527,-0.33865 0.9303,-0.33865 1.29557,0zm-20.92683,-0.0001c1.13861,1.05378 27.8888,25.98209 27.8888,41.36778c0,15.64771 -12.80151,28.37815 -28.53658,28.37815c-15.73508,0 -28.53659,-12.73044 -28.53659,-28.37815c0,-15.38569 26.7502,-40.314 27.8888,-41.36778c0.36527,-0.33864 0.9303,-0.33864 1.29557,0zm-0.64778,1.99783c-4.13971,3.9578 -26.63415,26.07762 -26.63415,39.36995c0,14.60528 11.94827,26.48627 26.63415,26.48627c14.68587,0 26.63414,-11.88099 26.63414,-26.48627c0,-13.29233 -22.49444,-35.41215 -26.63414,-39.36995z"/>
    </g>
   </g>
  </g>
 </g>
</svg>